REM GENRE "Death Metal"
REM DATE 1995
REM DISCID 870B3B0B
REM COMMENT "ExactAudioCopy v0.99pb4"
CATALOG 0000000000000
PERFORMER "Dark Tranquillity"
TITLE "The Gallery"
FILE "01 Punish My Heaven.flac" WAVE
  TRACK 01 AUDIO
    TITLE "Punish My Heaven"
    PERFORMER "Dark Tranquillity"
    FLAGS DCP
    INDEX 01 00:00:00
  TRACK 02 AUDIO
    TITLE "Silence, And The Firmament Withdrew"
    PERFORMER "Dark Tranquillity"
    FLAGS DCP
    INDEX 00 04:45:17
FILE "02 Silence, And The Firmament Withdrew.flac" WAVE
    INDEX 01 00:00:00
  TRACK 03 AUDIO
    TITLE "Edenspring"
    PERFORMER "Dark Tranquillity"
    FLAGS DCP
    INDEX 00 02:34:35
FILE "03 Edenspring.flac" WAVE
    INDEX 01 00:00:00
  TRACK 04 AUDIO
    TITLE "The Dividing Line"
    PERFORMER "Dark Tranquillity"
    FLAGS DCP
    INDEX 00 04:29:05
FILE "04 The Dividing Line.flac" WAVE
    INDEX 01 00:00:00
  TRACK 05 AUDIO
    TITLE "The Gallery"
    PERFORMER "Dark Tranquillity"
    FLAGS DCP
    INDEX 00 04:59:55
FILE "05 The Gallery.flac" WAVE
    INDEX 01 00:00:00
  TRACK 06 AUDIO
    TITLE "The One Brooding Warning"
    PERFORMER "Dark Tranquillity"
    FLAGS DCP
    INDEX 00 04:06:13
FILE "06 The One Brooding Warning.flac" WAVE
    INDEX 01 00:00:00
  TRACK 07 AUDIO
    TITLE "Midway Through Infinity"
    PERFORMER "Dark Tranquillity"
    FLAGS DCP
    INDEX 00 04:12:54
FILE "07 Midway Through Infinity.flac" WAVE
    INDEX 01 00:00:00
  TRACK 08 AUDIO
    TITLE "Lethe"
    PERFORMER "Dark Tranquillity"
    FLAGS DCP
    INDEX 00 03:28:34
FILE "08 Lethe.flac" WAVE
    INDEX 01 00:00:00
  TRACK 09 AUDIO
    TITLE "The Emptiness From Which I Fed"
    PERFORMER "Dark Tranquillity"
    FLAGS DCP
    INDEX 00 04:41:13
FILE "09 The Emptiness From Which I Fed.flac" WAVE
    INDEX 01 00:00:00
  TRACK 10 AUDIO
    TITLE "Mine Is The Grandeur..."
    PERFORMER "Dark Tranquillity"
    FLAGS DCP
    INDEX 00 05:41:65
FILE "10 Mine Is The Grandeur....flac" WAVE
    INDEX 01 00:00:00
FILE "11 ...Of Melancholy Burning.flac" WAVE
  TRACK 11 AUDIO
    TITLE "...Of Melancholy Burning"
    PERFORMER "Dark Tranquillity"
    FLAGS DCP
    INDEX 01 00:00:00
